<mxfile host="65bd71144e">
    <diagram id="C5RBs43oDa-KdzZeNtuy" name="Page-1">
        <mxGraphModel dx="816" dy="1321" grid="1" gridSize="10" guides="1" tooltips="1" connect="1" arrows="1" fold="1" page="0" pageScale="1" pageWidth="827" pageHeight="1169" math="0" shadow="0">
            <root>
                <mxCell id="WIyWlLk6GJQsqaUBKTNV-0"/>
                <mxCell id="WIyWlLk6GJQsqaUBKTNV-1" parent="WIyWlLk6GJQsqaUBKTNV-0"/>
                <mxCell id="ONTZsdqSc5LHt6kLnUVL-0" value="&lt;p style=&quot;margin:0px;margin-top:4px;text-align:center;&quot;&gt;&lt;i&gt;&amp;lt;&amp;lt;abstract&amp;gt;&amp;gt;&lt;/i&gt;&lt;br&gt;&lt;b&gt;User&lt;/b&gt;&lt;/p&gt;&lt;hr size=&quot;1&quot;&gt;&lt;p style=&quot;margin:0px;margin-left:4px;&quot;&gt;&lt;span style=&quot;background-color: initial;&quot;&gt;- username: String&lt;/span&gt;&lt;/p&gt;&lt;p style=&quot;margin:0px;margin-left:4px;&quot;&gt;- password: String&lt;/p&gt;&lt;p style=&quot;margin:0px;margin-left:4px;&quot;&gt;- picture: ImageIcon&lt;/p&gt;&lt;p style=&quot;margin:0px;margin-left:4px;&quot;&gt;- likedSongs: Playlist&lt;/p&gt;&lt;p style=&quot;margin:0px;margin-left:4px;&quot;&gt;- songList: SongList&lt;/p&gt;&lt;p style=&quot;margin:0px;margin-left:4px;&quot;&gt;- posts: ArrayList&amp;lt;Post&amp;gt;&lt;/p&gt;&lt;p style=&quot;margin:0px;margin-left:4px;&quot;&gt;- comments: ArrayList&amp;lt;Comment&amp;gt;&lt;/p&gt;&lt;p style=&quot;margin:0px;margin-left:4px;&quot;&gt;&lt;br&gt;&lt;/p&gt;&lt;p style=&quot;margin:0px;margin-left:4px;&quot;&gt;+ User()&lt;/p&gt;&lt;p style=&quot;margin:0px;margin-left:4px;&quot;&gt;+ getters and setters&lt;/p&gt;&lt;p style=&quot;margin:0px;margin-left:4px;&quot;&gt;+ editProfile(): void&lt;br&gt;+ viewProfile(): void&lt;br&gt;&lt;/p&gt;&lt;p style=&quot;margin:0px;margin-left:4px;&quot;&gt;+ logout(): void&lt;/p&gt;&lt;p style=&quot;margin:0px;margin-left:4px;&quot;&gt;&lt;br&gt;&lt;/p&gt;" style="verticalAlign=top;align=left;overflow=fill;fontSize=12;fontFamily=Helvetica;html=1;whiteSpace=wrap;" parent="WIyWlLk6GJQsqaUBKTNV-1" vertex="1">
                    <mxGeometry x="535" y="-10" width="195" height="260" as="geometry"/>
                </mxCell>
                <mxCell id="ONTZsdqSc5LHt6kLnUVL-3" value="Admin" style="swimlane;fontStyle=0;childLayout=stackLayout;horizontal=1;startSize=26;fillColor=none;horizontalStack=0;resizeParent=1;resizeParentMax=0;resizeLast=0;collapsible=1;marginBottom=0;whiteSpace=wrap;html=1;" parent="WIyWlLk6GJQsqaUBKTNV-1" vertex="1">
                    <mxGeometry x="160" y="385" width="270" height="96" as="geometry"/>
                </mxCell>
                <mxCell id="ONTZsdqSc5LHt6kLnUVL-4" value="- users: ArrayList&amp;lt;User&amp;gt;&lt;br&gt;&lt;br&gt;+ addUser(User): void&lt;br&gt;+ removeUser(User): void" style="text;html=1;align=left;verticalAlign=middle;resizable=0;points=[];autosize=1;strokeColor=none;fillColor=none;" parent="ONTZsdqSc5LHt6kLnUVL-3" vertex="1">
                    <mxGeometry y="26" width="270" height="70" as="geometry"/>
                </mxCell>
                <mxCell id="ONTZsdqSc5LHt6kLnUVL-12" value="Moderator" style="swimlane;fontStyle=0;childLayout=stackLayout;horizontal=1;startSize=26;fillColor=none;horizontalStack=0;resizeParent=1;resizeParentMax=0;resizeLast=0;collapsible=1;marginBottom=0;whiteSpace=wrap;html=1;" parent="WIyWlLk6GJQsqaUBKTNV-1" vertex="1">
                    <mxGeometry x="497.5" y="350" width="350" height="166" as="geometry"/>
                </mxCell>
                <mxCell id="ONTZsdqSc5LHt6kLnUVL-13" value="&lt;span style=&quot;background-color: initial;&quot;&gt;- masterSongList: SongList&lt;br&gt;&lt;br&gt;+ Moderator();&lt;br&gt;+ removePost(Post): void&lt;/span&gt;&lt;br&gt;&lt;div&gt;+ removeComment(Post): void&lt;/div&gt;&lt;div&gt;+ approveGenreRequest(GenreRequest, genreSections): void&lt;/div&gt;&lt;div&gt;//+ rejectGenreRequest(GenreRequest): void&lt;/div&gt;&lt;div&gt;//+ addGenre(String): void&lt;/div&gt;&lt;div&gt;+ removeGenre(GenreRequest, genreSections): void&lt;/div&gt;" style="text;html=1;align=left;verticalAlign=middle;resizable=0;points=[];autosize=1;strokeColor=none;fillColor=none;" parent="ONTZsdqSc5LHt6kLnUVL-12" vertex="1">
                    <mxGeometry y="26" width="350" height="140" as="geometry"/>
                </mxCell>
                <mxCell id="ONTZsdqSc5LHt6kLnUVL-15" style="edgeStyle=orthogonalEdgeStyle;rounded=0;orthogonalLoop=1;jettySize=auto;html=1;" parent="WIyWlLk6GJQsqaUBKTNV-1" source="ONTZsdqSc5LHt6kLnUVL-16" target="ONTZsdqSc5LHt6kLnUVL-18" edge="1">
                    <mxGeometry relative="1" as="geometry"/>
                </mxCell>
                <mxCell id="ONTZsdqSc5LHt6kLnUVL-16" value="Serialization" style="swimlane;fontStyle=0;childLayout=stackLayout;horizontal=1;startSize=26;fillColor=none;horizontalStack=0;resizeParent=1;resizeParentMax=0;resizeLast=0;collapsible=1;marginBottom=0;whiteSpace=wrap;html=1;" parent="WIyWlLk6GJQsqaUBKTNV-1" vertex="1">
                    <mxGeometry x="1610" y="56" width="210" height="150" as="geometry"/>
                </mxCell>
                <mxCell id="ONTZsdqSc5LHt6kLnUVL-17" value="&lt;div&gt;+ serializePosts(): void&lt;/div&gt;&lt;div&gt;+ deserializePosts(): void&lt;/div&gt;&lt;div&gt;+ serializeSongs(): void&lt;/div&gt;&lt;div&gt;+ deserializeSongs(): void&lt;/div&gt;&lt;div&gt;+ serializePlaylist(): void&lt;/div&gt;&lt;div&gt;+ deserializePlaylist(): void&lt;/div&gt;&lt;div&gt;+ serializeGenreRequests(): void&lt;/div&gt;&lt;div&gt;+ deserializeGenreRequests(): void&lt;/div&gt;" style="text;strokeColor=none;fillColor=none;align=left;verticalAlign=top;spacingLeft=4;spacingRight=4;overflow=hidden;rotatable=0;points=[[0,0.5],[1,0.5]];portConstraint=eastwest;whiteSpace=wrap;html=1;" parent="ONTZsdqSc5LHt6kLnUVL-16" vertex="1">
                    <mxGeometry y="26" width="210" height="124" as="geometry"/>
                </mxCell>
                <mxCell id="ONTZsdqSc5LHt6kLnUVL-18" value="Main" style="swimlane;fontStyle=0;childLayout=stackLayout;horizontal=1;startSize=26;fillColor=none;horizontalStack=0;resizeParent=1;resizeParentMax=0;resizeLast=0;collapsible=1;marginBottom=0;whiteSpace=wrap;html=1;" parent="WIyWlLk6GJQsqaUBKTNV-1" vertex="1">
                    <mxGeometry x="1625" y="-164" width="180" height="140" as="geometry"/>
                </mxCell>
                <mxCell id="ONTZsdqSc5LHt6kLnUVL-19" value="- serial: Serialization&lt;br&gt;-user : User&lt;br&gt;&lt;br&gt;+ login(): void&lt;br&gt;+register() : void&lt;br&gt;+getUsername() : string&lt;br&gt;+getPassword() : string" style="text;strokeColor=none;fillColor=none;align=left;verticalAlign=top;spacingLeft=4;spacingRight=4;overflow=hidden;rotatable=0;points=[[0,0.5],[1,0.5]];portConstraint=eastwest;whiteSpace=wrap;html=1;" parent="ONTZsdqSc5LHt6kLnUVL-18" vertex="1">
                    <mxGeometry y="26" width="180" height="114" as="geometry"/>
                </mxCell>
                <mxCell id="ONTZsdqSc5LHt6kLnUVL-58" style="edgeStyle=orthogonalEdgeStyle;rounded=0;orthogonalLoop=1;jettySize=auto;html=1;" parent="WIyWlLk6GJQsqaUBKTNV-1" source="9" target="ONTZsdqSc5LHt6kLnUVL-28" edge="1">
                    <mxGeometry relative="1" as="geometry">
                        <mxPoint x="1540" y="-12.999999999999773" as="sourcePoint"/>
                        <mxPoint x="2190" y="116" as="targetPoint"/>
                    </mxGeometry>
                </mxCell>
                <mxCell id="ONTZsdqSc5LHt6kLnUVL-28" value="Song" style="swimlane;fontStyle=0;childLayout=stackLayout;horizontal=1;startSize=26;fillColor=none;horizontalStack=0;resizeParent=1;resizeParentMax=0;resizeLast=0;collapsible=1;marginBottom=0;whiteSpace=wrap;html=1;" parent="WIyWlLk6GJQsqaUBKTNV-1" vertex="1">
                    <mxGeometry x="1260" y="156" width="140" height="280" as="geometry"/>
                </mxCell>
                <mxCell id="ONTZsdqSc5LHt6kLnUVL-29" value="- id: Int&lt;br&gt;- title: String&lt;br style=&quot;border-color: var(--border-color); text-align: center;&quot;&gt;- artist: String&lt;br style=&quot;border-color: var(--border-color); text-align: center;&quot;&gt;- genre: String&lt;br style=&quot;border-color: var(--border-color); text-align: center;&quot;&gt;&lt;br style=&quot;border-color: var(--border-color); text-align: center;&quot;&gt;&lt;span style=&quot;text-align: center;&quot;&gt;+Song()&lt;/span&gt;&lt;br style=&quot;border-color: var(--border-color); text-align: center;&quot;&gt;&lt;span style=&quot;text-align: center;&quot;&gt;+Song(int, String, String, String)&lt;/span&gt;&lt;br style=&quot;border-color: var(--border-color); text-align: center;&quot;&gt;&lt;br style=&quot;border-color: var(--border-color); text-align: center;&quot;&gt;&lt;span style=&quot;text-align: center;&quot;&gt;+setTitle(String): void&lt;/span&gt;&lt;br style=&quot;border-color: var(--border-color); text-align: center;&quot;&gt;&lt;span style=&quot;text-align: center;&quot;&gt;+geTitle(): String&lt;/span&gt;&lt;br style=&quot;border-color: var(--border-color); text-align: center;&quot;&gt;&lt;span style=&quot;text-align: center;&quot;&gt;+setSongId(int): void&lt;/span&gt;&lt;br style=&quot;border-color: var(--border-color); text-align: center;&quot;&gt;&lt;span style=&quot;text-align: center;&quot;&gt;+getSongId(): int&lt;/span&gt;&lt;br style=&quot;border-color: var(--border-color); text-align: center;&quot;&gt;&lt;span style=&quot;text-align: center;&quot;&gt;+setArtist(String): void&lt;/span&gt;&lt;br style=&quot;border-color: var(--border-color); text-align: center;&quot;&gt;+getArtist(): String&lt;br&gt;&lt;span style=&quot;border-color: var(--border-color); text-align: center;&quot;&gt;+setGenre(String): void&lt;/span&gt;&lt;br style=&quot;border-color: var(--border-color); text-align: center;&quot;&gt;&lt;span style=&quot;border-color: var(--border-color); text-align: center;&quot;&gt;+getGenre(): String&lt;/span&gt;&lt;span style=&quot;text-align: center;&quot;&gt;&lt;br&gt;&lt;/span&gt;" style="text;strokeColor=none;fillColor=none;align=left;verticalAlign=top;spacingLeft=4;spacingRight=4;overflow=hidden;rotatable=0;points=[[0,0.5],[1,0.5]];portConstraint=eastwest;whiteSpace=wrap;html=1;" parent="ONTZsdqSc5LHt6kLnUVL-28" vertex="1">
                    <mxGeometry y="26" width="140" height="254" as="geometry"/>
                </mxCell>
                <mxCell id="ONTZsdqSc5LHt6kLnUVL-37" value="Post" style="swimlane;fontStyle=0;childLayout=stackLayout;horizontal=1;startSize=26;fillColor=none;horizontalStack=0;resizeParent=1;resizeParentMax=0;resizeLast=0;collapsible=1;marginBottom=0;whiteSpace=wrap;html=1;" parent="WIyWlLk6GJQsqaUBKTNV-1" vertex="1">
                    <mxGeometry x="530" y="-271" width="200" height="100" as="geometry"/>
                </mxCell>
                <mxCell id="ONTZsdqSc5LHt6kLnUVL-38" value="- comments: ArrayList&amp;lt;Comment&amp;gt;&lt;br style=&quot;border-color: var(--border-color); text-align: center;&quot;&gt;&lt;br&gt;+ Post()&lt;br&gt;&lt;span style=&quot;text-align: center;&quot;&gt;+ getter and setter for comments&lt;br&gt;&lt;/span&gt;" style="text;strokeColor=none;fillColor=none;align=left;verticalAlign=top;spacingLeft=4;spacingRight=4;overflow=hidden;rotatable=0;points=[[0,0.5],[1,0.5]];portConstraint=eastwest;whiteSpace=wrap;html=1;" parent="ONTZsdqSc5LHt6kLnUVL-37" vertex="1">
                    <mxGeometry y="26" width="200" height="74" as="geometry"/>
                </mxCell>
                <mxCell id="ONTZsdqSc5LHt6kLnUVL-39" value="Comment" style="swimlane;fontStyle=0;childLayout=stackLayout;horizontal=1;startSize=26;fillColor=none;horizontalStack=0;resizeParent=1;resizeParentMax=0;resizeLast=0;collapsible=1;marginBottom=0;whiteSpace=wrap;html=1;" parent="WIyWlLk6GJQsqaUBKTNV-1" vertex="1">
                    <mxGeometry x="815" y="-256" width="110" height="70" as="geometry"/>
                </mxCell>
                <mxCell id="ONTZsdqSc5LHt6kLnUVL-40" value="&lt;div&gt;&lt;span style=&quot;background-color: initial;&quot;&gt;+ Comment()&lt;/span&gt;&lt;br&gt;&lt;/div&gt;&lt;div&gt;&lt;br&gt;&lt;/div&gt;" style="text;strokeColor=none;fillColor=none;align=left;verticalAlign=top;spacingLeft=4;spacingRight=4;overflow=hidden;rotatable=0;points=[[0,0.5],[1,0.5]];portConstraint=eastwest;whiteSpace=wrap;html=1;" parent="ONTZsdqSc5LHt6kLnUVL-39" vertex="1">
                    <mxGeometry y="26" width="110" height="44" as="geometry"/>
                </mxCell>
                <mxCell id="ONTZsdqSc5LHt6kLnUVL-41" value="Playlist" style="swimlane;fontStyle=0;childLayout=stackLayout;horizontal=1;startSize=26;fillColor=none;horizontalStack=0;resizeParent=1;resizeParentMax=0;resizeLast=0;collapsible=1;marginBottom=0;whiteSpace=wrap;html=1;" parent="WIyWlLk6GJQsqaUBKTNV-1" vertex="1">
                    <mxGeometry x="1245" y="-284" width="170" height="100" as="geometry"/>
                </mxCell>
                <mxCell id="ONTZsdqSc5LHt6kLnUVL-42" value="&lt;div&gt;&lt;span style=&quot;background-color: initial;&quot;&gt;- name: String&lt;/span&gt;&lt;br&gt;&lt;/div&gt;&lt;div&gt;&lt;br&gt;&lt;/div&gt;&lt;div&gt;&lt;br&gt;&lt;/div&gt;&lt;div&gt;+ Playlist()&lt;/div&gt;&lt;div&gt;&lt;br&gt;&lt;/div&gt;" style="text;strokeColor=none;fillColor=none;align=left;verticalAlign=top;spacingLeft=4;spacingRight=4;overflow=hidden;rotatable=0;points=[[0,0.5],[1,0.5]];portConstraint=eastwest;whiteSpace=wrap;html=1;" parent="ONTZsdqSc5LHt6kLnUVL-41" vertex="1">
                    <mxGeometry y="26" width="170" height="74" as="geometry"/>
                </mxCell>
                <mxCell id="ONTZsdqSc5LHt6kLnUVL-60" value="Extends" style="endArrow=block;endSize=16;endFill=0;html=1;rounded=0;" parent="WIyWlLk6GJQsqaUBKTNV-1" source="ONTZsdqSc5LHt6kLnUVL-41" target="9" edge="1">
                    <mxGeometry width="160" relative="1" as="geometry">
                        <mxPoint x="2090" y="-374" as="sourcePoint"/>
                        <mxPoint x="2250" y="-374" as="targetPoint"/>
                    </mxGeometry>
                </mxCell>
                <mxCell id="ONTZsdqSc5LHt6kLnUVL-61" value="LikedSongs" style="swimlane;fontStyle=0;childLayout=stackLayout;horizontal=1;startSize=26;fillColor=none;horizontalStack=0;resizeParent=1;resizeParentMax=0;resizeLast=0;collapsible=1;marginBottom=0;whiteSpace=wrap;html=1;" parent="WIyWlLk6GJQsqaUBKTNV-1" vertex="1">
                    <mxGeometry x="1805" y="701" width="140" height="80" as="geometry"/>
                </mxCell>
                <mxCell id="ONTZsdqSc5LHt6kLnUVL-62" value="&lt;div&gt;- name: String&lt;/div&gt;&lt;div&gt;&lt;br&gt;&lt;/div&gt;&lt;div&gt;+ LikedSongs()&lt;/div&gt;" style="text;strokeColor=none;fillColor=none;align=left;verticalAlign=top;spacingLeft=4;spacingRight=4;overflow=hidden;rotatable=0;points=[[0,0.5],[1,0.5]];portConstraint=eastwest;whiteSpace=wrap;html=1;" parent="ONTZsdqSc5LHt6kLnUVL-61" vertex="1">
                    <mxGeometry y="26" width="140" height="54" as="geometry"/>
                </mxCell>
                <mxCell id="0" value="&lt;i&gt;&amp;lt;&amp;lt;abstract&amp;gt;&amp;gt;&lt;/i&gt;&lt;br&gt;&lt;b&gt;Content&lt;/b&gt;" style="swimlane;fontStyle=0;childLayout=stackLayout;horizontal=1;startSize=26;fillColor=none;horizontalStack=0;resizeParent=1;resizeParentMax=0;resizeLast=0;collapsible=1;marginBottom=0;whiteSpace=wrap;html=1;" parent="WIyWlLk6GJQsqaUBKTNV-1" vertex="1">
                    <mxGeometry x="690" y="-480" width="150" height="150" as="geometry"/>
                </mxCell>
                <mxCell id="1" value="&lt;div&gt;- id: int&lt;/div&gt;&lt;div&gt;- author: User&lt;/div&gt;&lt;div&gt;- data: String&lt;/div&gt;&lt;div&gt;- timestamp: Date&lt;/div&gt;&lt;div&gt;&lt;br&gt;&lt;/div&gt;&lt;div&gt;+ Content()&lt;/div&gt;&lt;div&gt;+ getters and setters()&lt;br&gt;&lt;/div&gt;" style="text;strokeColor=none;fillColor=none;align=left;verticalAlign=top;spacingLeft=4;spacingRight=4;overflow=hidden;rotatable=0;points=[[0,0.5],[1,0.5]];portConstraint=eastwest;whiteSpace=wrap;html=1;" parent="0" vertex="1">
                    <mxGeometry y="26" width="150" height="124" as="geometry"/>
                </mxCell>
                <mxCell id="9" value="SongList" style="swimlane;fontStyle=0;childLayout=stackLayout;horizontal=1;startSize=26;fillColor=none;horizontalStack=0;resizeParent=1;resizeParentMax=0;resizeLast=0;collapsible=1;marginBottom=0;whiteSpace=wrap;html=1;" parent="WIyWlLk6GJQsqaUBKTNV-1" vertex="1">
                    <mxGeometry x="1240" y="-74" width="180" height="162" as="geometry"/>
                </mxCell>
                <mxCell id="10" value="&lt;span style=&quot;text-align: center;&quot;&gt;- songs: ArrayList&amp;lt;Song&amp;gt;&lt;br&gt;&lt;br&gt;+ SongList()&lt;br&gt;+ addSong(Song): void&lt;br&gt;+ removeSong(Song): void&lt;br&gt;+ getSongs(): List&amp;lt;Song&amp;gt;&lt;br&gt;&lt;/span&gt;" style="text;strokeColor=none;fillColor=none;align=left;verticalAlign=top;spacingLeft=4;spacingRight=4;overflow=hidden;rotatable=0;points=[[0,0.5],[1,0.5]];portConstraint=eastwest;whiteSpace=wrap;html=1;" parent="9" vertex="1">
                    <mxGeometry y="26" width="180" height="136" as="geometry"/>
                </mxCell>
                <mxCell id="12" value="Extends" style="endArrow=block;endSize=16;endFill=0;html=1;rounded=0;" parent="WIyWlLk6GJQsqaUBKTNV-1" source="ONTZsdqSc5LHt6kLnUVL-39" target="0" edge="1">
                    <mxGeometry width="160" relative="1" as="geometry">
                        <mxPoint x="520.0021991701242" y="-560" as="sourcePoint"/>
                        <mxPoint x="561.0810373443983" y="-450" as="targetPoint"/>
                    </mxGeometry>
                </mxCell>
                <mxCell id="13" value="Extends" style="endArrow=block;endSize=16;endFill=0;html=1;rounded=0;" parent="WIyWlLk6GJQsqaUBKTNV-1" source="ONTZsdqSc5LHt6kLnUVL-37" target="0" edge="1">
                    <mxGeometry width="160" relative="1" as="geometry">
                        <mxPoint x="530.0021991701237" y="-550" as="sourcePoint"/>
                        <mxPoint x="571.0810373443978" y="-440" as="targetPoint"/>
                    </mxGeometry>
                </mxCell>
                <mxCell id="14" value="ConcreteUser" style="swimlane;fontStyle=0;childLayout=stackLayout;horizontal=1;startSize=26;fillColor=none;horizontalStack=0;resizeParent=1;resizeParentMax=0;resizeLast=0;collapsible=1;marginBottom=0;whiteSpace=wrap;html=1;" parent="WIyWlLk6GJQsqaUBKTNV-1" vertex="1">
                    <mxGeometry x="815" y="250" width="260" height="66" as="geometry"/>
                </mxCell>
                <mxCell id="15" value="+ ConcreteUser()&lt;br&gt;// + genreRequest()" style="text;html=1;align=left;verticalAlign=middle;resizable=0;points=[];autosize=1;strokeColor=none;fillColor=none;" parent="14" vertex="1">
                    <mxGeometry y="26" width="260" height="40" as="geometry"/>
                </mxCell>
                <mxCell id="21" value="" style="endArrow=diamondThin;endFill=0;endSize=24;html=1;" parent="WIyWlLk6GJQsqaUBKTNV-1" source="ONTZsdqSc5LHt6kLnUVL-0" target="ONTZsdqSc5LHt6kLnUVL-41" edge="1">
                    <mxGeometry width="160" relative="1" as="geometry">
                        <mxPoint x="600" y="90" as="sourcePoint"/>
                        <mxPoint x="1160" y="-50" as="targetPoint"/>
                    </mxGeometry>
                </mxCell>
                <mxCell id="22" value="" style="endArrow=diamondThin;endFill=0;endSize=24;html=1;" parent="WIyWlLk6GJQsqaUBKTNV-1" source="ONTZsdqSc5LHt6kLnUVL-0" target="9" edge="1">
                    <mxGeometry width="160" relative="1" as="geometry">
                        <mxPoint x="610" y="100" as="sourcePoint"/>
                        <mxPoint x="1190" y="7" as="targetPoint"/>
                    </mxGeometry>
                </mxCell>
                <mxCell id="23" value="" style="endArrow=diamondThin;endFill=0;endSize=24;html=1;" parent="WIyWlLk6GJQsqaUBKTNV-1" source="ONTZsdqSc5LHt6kLnUVL-37" target="ONTZsdqSc5LHt6kLnUVL-39" edge="1">
                    <mxGeometry width="160" relative="1" as="geometry">
                        <mxPoint x="600" y="-310" as="sourcePoint"/>
                        <mxPoint x="760" y="-310" as="targetPoint"/>
                    </mxGeometry>
                </mxCell>
                <mxCell id="24" value="" style="endArrow=diamondThin;endFill=0;endSize=24;html=1;" parent="WIyWlLk6GJQsqaUBKTNV-1" source="ONTZsdqSc5LHt6kLnUVL-0" target="ONTZsdqSc5LHt6kLnUVL-37" edge="1">
                    <mxGeometry width="160" relative="1" as="geometry">
                        <mxPoint x="880" y="-90" as="sourcePoint"/>
                        <mxPoint x="905" y="-211" as="targetPoint"/>
                    </mxGeometry>
                </mxCell>
                <mxCell id="26" value="GenreSection" style="swimlane;fontStyle=0;childLayout=stackLayout;horizontal=1;startSize=26;fillColor=none;horizontalStack=0;resizeParent=1;resizeParentMax=0;resizeLast=0;collapsible=1;marginBottom=0;whiteSpace=wrap;html=1;" parent="WIyWlLk6GJQsqaUBKTNV-1" vertex="1">
                    <mxGeometry x="195" y="-281" width="200" height="120" as="geometry"/>
                </mxCell>
                <mxCell id="27" value="- posts: ArrayList&amp;lt;Post&amp;gt;&lt;br&gt;- name: String&lt;br&gt;&lt;br&gt;+ GenreSection()&lt;br&gt;+ setters and getters" style="text;strokeColor=none;fillColor=none;align=left;verticalAlign=top;spacingLeft=4;spacingRight=4;overflow=hidden;rotatable=0;points=[[0,0.5],[1,0.5]];portConstraint=eastwest;whiteSpace=wrap;html=1;" parent="26" vertex="1">
                    <mxGeometry y="26" width="200" height="94" as="geometry"/>
                </mxCell>
                <mxCell id="28" value="Program" style="swimlane;fontStyle=0;childLayout=stackLayout;horizontal=1;startSize=26;fillColor=none;horizontalStack=0;resizeParent=1;resizeParentMax=0;resizeLast=0;collapsible=1;marginBottom=0;whiteSpace=wrap;html=1;" parent="WIyWlLk6GJQsqaUBKTNV-1" vertex="1">
                    <mxGeometry x="175" y="-40" width="240" height="110" as="geometry"/>
                </mxCell>
                <mxCell id="29" value="- genreSections: ArrayList&amp;lt;GenreSection&amp;gt;&lt;br&gt;- admin : Admin&amp;nbsp;&lt;br&gt;&lt;br&gt;+ Program()&lt;br&gt;+ setter and getter" style="text;strokeColor=none;fillColor=none;align=left;verticalAlign=top;spacingLeft=4;spacingRight=4;overflow=hidden;rotatable=0;points=[[0,0.5],[1,0.5]];portConstraint=eastwest;whiteSpace=wrap;html=1;" parent="28" vertex="1">
                    <mxGeometry y="26" width="240" height="84" as="geometry"/>
                </mxCell>
                <mxCell id="30" value="" style="endArrow=diamondThin;endFill=0;endSize=24;html=1;" parent="WIyWlLk6GJQsqaUBKTNV-1" source="28" target="26" edge="1">
                    <mxGeometry width="160" relative="1" as="geometry">
                        <mxPoint x="355.46692082111434" y="260" as="sourcePoint"/>
                        <mxPoint x="354.28656891495615" y="99" as="targetPoint"/>
                    </mxGeometry>
                </mxCell>
                <mxCell id="31" value="" style="endArrow=diamondThin;endFill=0;endSize=24;html=1;" parent="WIyWlLk6GJQsqaUBKTNV-1" source="26" target="ONTZsdqSc5LHt6kLnUVL-37" edge="1">
                    <mxGeometry width="160" relative="1" as="geometry">
                        <mxPoint x="450" y="-290" as="sourcePoint"/>
                        <mxPoint x="440" y="-360" as="targetPoint"/>
                    </mxGeometry>
                </mxCell>
                <mxCell id="35" value="Extends" style="endArrow=block;endSize=16;endFill=0;html=1;rounded=0;" parent="WIyWlLk6GJQsqaUBKTNV-1" source="ONTZsdqSc5LHt6kLnUVL-12" target="ONTZsdqSc5LHt6kLnUVL-0" edge="1">
                    <mxGeometry width="160" relative="1" as="geometry">
                        <mxPoint x="322.22717391304354" y="294" as="sourcePoint"/>
                        <mxPoint x="279.9989130434785" y="220.0000000000001" as="targetPoint"/>
                    </mxGeometry>
                </mxCell>
                <mxCell id="36" value="Extends" style="endArrow=block;endSize=16;endFill=0;html=1;rounded=0;" parent="WIyWlLk6GJQsqaUBKTNV-1" source="14" target="ONTZsdqSc5LHt6kLnUVL-0" edge="1">
                    <mxGeometry width="160" relative="1" as="geometry">
                        <mxPoint x="1080" y="358" as="sourcePoint"/>
                        <mxPoint x="929.9989130434788" y="234" as="targetPoint"/>
                    </mxGeometry>
                </mxCell>
                <mxCell id="37" value="Extends" style="endArrow=block;endSize=16;endFill=0;html=1;rounded=0;" parent="WIyWlLk6GJQsqaUBKTNV-1" source="ONTZsdqSc5LHt6kLnUVL-3" target="ONTZsdqSc5LHt6kLnUVL-12" edge="1">
                    <mxGeometry width="160" relative="1" as="geometry">
                        <mxPoint x="729.9971739130438" y="333" as="sourcePoint"/>
                        <mxPoint x="630" y="330" as="targetPoint"/>
                    </mxGeometry>
                </mxCell>
                <mxCell id="38" value="" style="endArrow=diamondThin;endFill=0;endSize=24;html=1;" parent="WIyWlLk6GJQsqaUBKTNV-1" source="28" target="ONTZsdqSc5LHt6kLnUVL-3" edge="1">
                    <mxGeometry width="160" relative="1" as="geometry">
                        <mxPoint x="410" y="289" as="sourcePoint"/>
                        <mxPoint x="410" y="156" as="targetPoint"/>
                    </mxGeometry>
                </mxCell>
            </root>
        </mxGraphModel>
    </diagram>
</mxfile>